<svg width="40" height="40" viewBox="0 0 40 40" fill="none" xmlns="http://www.w3.org/2000/svg">
<rect width="40" height="40" rx="4" fill="#2D2D2D"/>
<g clip-path="url(#clip0_0_710)">
<path d="M29.285 20.0001C29.281 22.2691 28.448 24.4581 26.944 26.1561C25.44 27.8541 23.367 28.9451 21.116 29.2231C21.066 29.2281 21.015 29.2231 20.967 29.2071C20.919 29.1921 20.874 29.1661 20.837 29.1331C20.799 29.0991 20.769 29.0581 20.748 29.0121C20.726 28.9661 20.715 28.9171 20.714 28.8661V22.1431H22.857C22.954 22.1431 23.051 22.1231 23.141 22.0851C23.231 22.0461 23.311 21.9891 23.378 21.9181C23.445 21.8471 23.497 21.7631 23.53 21.6711C23.563 21.5791 23.577 21.4821 23.571 21.3841C23.555 21.1991 23.47 21.0271 23.332 20.9031C23.195 20.7791 23.015 20.7111 22.83 20.7141H20.714V18.5721C20.714 18.1931 20.864 17.8291 21.132 17.5611C21.4 17.2931 21.764 17.1431 22.143 17.1431H23.571C23.669 17.1431 23.765 17.1231 23.855 17.0851C23.945 17.0461 24.026 16.9891 24.093 16.9181C24.16 16.8471 24.211 16.7631 24.244 16.6711C24.277 16.5791 24.291 16.4821 24.285 16.3841C24.27 16.1991 24.184 16.0271 24.047 15.9031C23.909 15.7791 23.73 15.7111 23.544 15.7141H22.143C21.385 15.7141 20.658 16.0151 20.122 16.5511C19.586 17.0871 19.285 17.8141 19.285 18.5721V20.7141H17.143C17.045 20.7141 16.948 20.7341 16.858 20.7731C16.769 20.8111 16.688 20.8681 16.621 20.9391C16.554 21.0101 16.502 21.0941 16.469 21.1861C16.436 21.2781 16.422 21.3761 16.428 21.4731C16.444 21.6581 16.529 21.8301 16.667 21.9541C16.804 22.0781 16.984 22.1461 17.169 22.1431H19.285V28.8661C19.286 28.9161 19.275 28.9661 19.255 29.0121C19.235 29.0581 19.206 29.0991 19.168 29.1321C19.131 29.1661 19.088 29.1911 19.04 29.2071C18.993 29.2231 18.942 29.2281 18.893 29.2231C14.178 28.6521 10.535 24.5541 10.723 19.6521C10.828 17.2311 11.875 14.9471 13.641 13.2881C15.407 11.6291 17.751 10.7261 20.174 10.7711C22.597 10.8171 24.905 11.8071 26.608 13.5311C28.31 15.2561 29.271 17.5771 29.285 20.0001Z" fill="white"/>
</g>
<defs>
<clipPath id="clip0_0_710">
<rect width="24" height="24" fill="white" transform="translate(8 8)"/>
</clipPath>
</defs>
</svg>
