<svg width="40" height="40" viewBox="0 0 40 40" fill="none" xmlns="http://www.w3.org/2000/svg">
<rect width="40" height="40" rx="4" fill="#2D2D2D"/>
<g clip-path="url(#clip0_0_724)">
<path d="M20 22.8569C21.578 22.8569 22.8572 21.5777 22.8572 19.9997C22.8572 18.4218 21.578 17.1426 20 17.1426C18.4221 17.1426 17.1429 18.4218 17.1429 19.9997C17.1429 21.5777 18.4221 22.8569 20 22.8569Z" fill="white"/>
<path d="M23.9286 11.0713H16.0714C14.7454 11.0713 13.4736 11.5981 12.5359 12.5358C11.5982 13.4734 11.0714 14.7452 11.0714 16.0713V23.9284C11.0714 25.2545 11.5982 26.5263 12.5359 27.464C13.4736 28.4016 14.7454 28.9284 16.0714 28.9284H23.9286C25.2547 28.9284 26.5264 28.4016 27.4641 27.464C28.4018 26.5263 28.9286 25.2545 28.9286 23.9284V16.0713C28.9286 14.7452 28.4018 13.4734 27.4641 12.5358C26.5264 11.5981 25.2547 11.0713 23.9286 11.0713ZM20 24.2856C19.1524 24.2856 18.3238 24.0342 17.619 23.5633C16.9142 23.0924 16.3649 22.423 16.0405 21.6399C15.7162 20.8568 15.6313 19.9951 15.7967 19.1638C15.962 18.3324 16.3702 17.5688 16.9696 16.9694C17.5689 16.37 18.3326 15.9619 19.1639 15.7965C19.9953 15.6311 20.857 15.716 21.6401 16.0404C22.4232 16.3647 23.0925 16.9141 23.5635 17.6188C24.0344 18.3236 24.2857 19.1522 24.2857 19.9999C24.2857 21.1365 23.8342 22.2266 23.0305 23.0303C22.2267 23.834 21.1367 24.2856 20 24.2856ZM24.6429 16.4284C24.431 16.4284 24.2238 16.3656 24.0476 16.2479C23.8714 16.1301 23.7341 15.9628 23.653 15.767C23.5719 15.5712 23.5507 15.3558 23.592 15.148C23.6334 14.9401 23.7354 14.7492 23.8853 14.5994C24.0351 14.4495 24.226 14.3475 24.4338 14.3062C24.6417 14.2648 24.8571 14.286 25.0529 14.3671C25.2487 14.4482 25.416 14.5855 25.5337 14.7617C25.6515 14.9379 25.7143 15.1451 25.7143 15.357C25.7143 15.6412 25.6014 15.9137 25.4005 16.1146C25.1996 16.3155 24.927 16.4284 24.6429 16.4284Z" fill="white"/>
</g>
<defs>
<clipPath id="clip0_0_724">
<rect width="24" height="24" fill="white" transform="translate(8 8)"/>
</clipPath>
</defs>
</svg>
