<svg width="40" height="40" viewBox="0 0 40 40" fill="none" xmlns="http://www.w3.org/2000/svg">
<rect width="40" height="40" rx="4" fill="#2D2D2D"/>
<g clip-path="url(#clip0_0_739)">
<path d="M27.5008 11.0713H12.5008C12.122 11.0713 11.7586 11.2218 11.4907 11.4897C11.2228 11.7576 11.0723 12.121 11.0723 12.4999V27.4999C11.0723 27.8788 11.2228 28.2421 11.4907 28.51C11.7586 28.7779 12.122 28.9285 12.5008 28.9285H27.5008C27.8797 28.9285 28.2431 28.7779 28.511 28.51C28.7789 28.2421 28.9294 27.8788 28.9294 27.4999V12.4999C28.9294 12.121 28.7789 11.7576 28.511 11.4897C28.2431 11.2218 27.8797 11.0713 27.5008 11.0713ZM17.1437 24.2856C17.1437 24.475 17.0684 24.6567 16.9345 24.7907C16.8005 24.9246 16.6188 24.9999 16.4294 24.9999C16.24 24.9999 16.0583 24.9246 15.9243 24.7907C15.7904 24.6567 15.7151 24.475 15.7151 24.2856V18.5713C15.7151 18.3819 15.7904 18.2002 15.9243 18.0662C16.0583 17.9323 16.24 17.857 16.4294 17.857C16.6188 17.857 16.8005 17.9323 16.9345 18.0662C17.0684 18.2002 17.1437 18.3819 17.1437 18.5713V24.2856ZM16.4294 16.7856C16.2175 16.7856 16.0103 16.7227 15.8342 16.605C15.658 16.4873 15.5206 16.3199 15.4395 16.1242C15.3584 15.9284 15.3372 15.713 15.3786 15.5051C15.4199 15.2973 15.5219 15.1064 15.6718 14.9565C15.8216 14.8067 16.0125 14.7046 16.2204 14.6633C16.4282 14.622 16.6436 14.6432 16.8394 14.7243C17.0352 14.8054 17.2025 14.9427 17.3203 15.1189C17.438 15.2951 17.5008 15.5022 17.5008 15.7141C17.5008 15.9983 17.388 16.2708 17.187 16.4718C16.9861 16.6727 16.7136 16.7856 16.4294 16.7856ZM25.0008 24.2856C25.0008 24.475 24.9256 24.6567 24.7916 24.7907C24.6577 24.9246 24.476 24.9999 24.2866 24.9999C24.0971 24.9999 23.9154 24.9246 23.7815 24.7907C23.6475 24.6567 23.5723 24.475 23.5723 24.2856V21.0713C23.5723 20.5977 23.3841 20.1435 23.0492 19.8086C22.7144 19.4737 22.2602 19.2856 21.7866 19.2856C21.313 19.2856 20.8587 19.4737 20.5239 19.8086C20.189 20.1435 20.0008 20.5977 20.0008 21.0713V24.2856C20.0008 24.475 19.9256 24.6567 19.7916 24.7907C19.6577 24.9246 19.476 24.9999 19.2866 24.9999C19.0971 24.9999 18.9154 24.9246 18.7815 24.7907C18.6475 24.6567 18.5723 24.475 18.5723 24.2856V18.5713C18.5718 18.3955 18.6361 18.2257 18.753 18.0944C18.8699 17.9631 19.031 17.8795 19.2057 17.8596C19.3804 17.8397 19.5562 17.8849 19.6996 17.9865C19.843 18.0882 19.9439 18.2392 19.983 18.4106C20.4663 18.083 21.0297 17.8931 21.6128 17.8616C22.1958 17.83 22.7765 17.9579 23.2923 18.2314C23.8082 18.505 24.2398 18.9139 24.5408 19.4142C24.8418 19.9145 25.0009 20.4874 25.0008 21.0713V24.2856Z" fill="white"/>
</g>
<defs>
<clipPath id="clip0_0_739">
<rect width="24" height="24" fill="white" transform="translate(8 8)"/>
</clipPath>
</defs>
</svg>
