<svg width="40" height="40" viewBox="0 0 40 40" fill="none" xmlns="http://www.w3.org/2000/svg">
<rect width="40" height="40" rx="4" fill="#2D2D2D"/>
<g clip-path="url(#clip0_0_717)">
<path d="M30.5092 15.5087L27.8127 18.1962C27.277 24.4373 22.0092 29.2855 15.7145 29.2855C14.4199 29.2855 13.3485 29.0802 12.536 28.6784C11.8842 28.348 11.6163 27.9998 11.5449 27.8927C11.4858 27.8029 11.4477 27.701 11.4335 27.5944C11.4192 27.4879 11.4292 27.3795 11.4627 27.2774C11.4962 27.1753 11.5523 27.082 11.6268 27.0046C11.7013 26.9272 11.7923 26.8675 11.8931 26.8302C11.911 26.8212 14.0181 26.0177 15.3842 24.473C14.537 23.8698 13.7923 23.1342 13.1788 22.2944C11.9556 20.6337 10.661 17.7498 11.4377 13.4462C11.4622 13.3183 11.5207 13.1993 11.6071 13.1019C11.6936 13.0045 11.8047 12.9322 11.9288 12.8927C12.0533 12.8519 12.1867 12.8462 12.3142 12.8761C12.4418 12.906 12.5586 12.9704 12.652 13.0623C12.6788 13.098 15.652 16.0266 19.286 16.973V16.4284C19.2895 15.8621 19.4045 15.302 19.6245 14.7801C19.8444 14.2582 20.165 13.7848 20.568 13.3868C20.9709 12.9888 21.4483 12.6741 21.9729 12.4607C22.4974 12.2472 23.0589 12.1391 23.6252 12.1427C24.3685 12.1533 25.0964 12.3562 25.738 12.7318C26.3795 13.1073 26.9128 13.6426 27.286 14.2855H30.0002C30.1413 14.2851 30.2793 14.3264 30.3968 14.4042C30.5144 14.4821 30.6063 14.593 30.661 14.723C30.7124 14.855 30.7255 14.9988 30.6986 15.1378C30.6718 15.2769 30.6061 15.4055 30.5092 15.5087Z" fill="white"/>
</g>
<defs>
<clipPath id="clip0_0_717">
<rect width="24" height="24" fill="white" transform="translate(8 8)"/>
</clipPath>
</defs>
</svg>
