<svg width="40" height="40" viewBox="0 0 40 40" fill="none" xmlns="http://www.w3.org/2000/svg">
<rect width="40" height="40" rx="4" fill="#2D2D2D"/>
<g clip-path="url(#clip0_0_732)">
<path d="M29.4911 14.8032C29.409 14.4741 29.2483 14.1697 29.0229 13.9162C28.7974 13.6627 28.5138 13.4677 28.1964 13.3479C25.1429 12.1693 20.2679 12.1782 20 12.1782C19.7321 12.1782 14.8571 12.1693 11.8036 13.3479C11.4862 13.4677 11.2026 13.6627 10.9771 13.9162C10.7516 14.1697 10.591 14.4741 10.5089 14.8032C10.2768 15.6872 10 17.3122 10 19.9997C10 22.6872 10.2768 24.3122 10.5089 25.1961C10.591 25.5253 10.7516 25.8296 10.9771 26.0831C11.2026 26.3366 11.4862 26.5316 11.8036 26.6514C14.7321 27.7854 19.3214 27.8211 19.9375 27.8211H20.0625C20.6786 27.8211 25.2679 27.7854 28.1964 26.6514C28.5138 26.5316 28.7974 26.3366 29.0229 26.0831C29.2483 25.8296 29.409 25.5253 29.4911 25.1961C29.7232 24.3122 30 22.6872 30 19.9997C30 17.3122 29.7232 15.6872 29.4911 14.8032ZM23.0536 20.2943L18.7679 23.1514C18.711 23.1933 18.642 23.2152 18.5714 23.2139C18.5123 23.2117 18.4544 23.1965 18.4018 23.1693C18.3447 23.1396 18.297 23.0947 18.2639 23.0395C18.2308 22.9844 18.2136 22.9211 18.2143 22.8568V17.1425C18.2136 17.0782 18.2308 17.0149 18.2639 16.9598C18.297 16.9046 18.3447 16.8597 18.4018 16.83C18.4587 16.7996 18.5228 16.7853 18.5873 16.7884C18.6517 16.7915 18.7141 16.8121 18.7679 16.8479L23.0536 19.705C23.1034 19.7364 23.1444 19.7799 23.1729 19.8314C23.2013 19.8829 23.2162 19.9408 23.2162 19.9997C23.2162 20.0585 23.2013 20.1164 23.1729 20.1679C23.1444 20.2195 23.1034 20.2629 23.0536 20.2943Z" fill="white"/>
</g>
<defs>
<clipPath id="clip0_0_732">
<rect width="24" height="24" fill="white" transform="translate(8 8)"/>
</clipPath>
</defs>
</svg>
